<svg id="visual" viewBox="0 0 900 600" width="900" height="600" xmlns="http://www.w3.org/2000/svg" xmlns:xlink="http://www.w3.org/1999/xlink" version="1.1"><path d="M0 243L18.8 229C37.7 215 75.3 187 112.8 163.7C150.3 140.3 187.7 121.7 225.2 121C262.7 120.3 300.3 137.7 337.8 159.8C375.3 182 412.7 209 450.2 214.5C487.7 220 525.3 204 562.8 177.5C600.3 151 637.7 114 675.2 121.5C712.7 129 750.3 181 787.8 197.7C825.3 214.3 862.7 195.7 881.3 186.3L900 177L900 0L881.3 0C862.7 0 825.3 0 787.8 0C750.3 0 712.7 0 675.2 0C637.7 0 600.3 0 562.8 0C525.3 0 487.7 0 450.2 0C412.7 0 375.3 0 337.8 0C300.3 0 262.7 0 225.2 0C187.7 0 150.3 0 112.8 0C75.3 0 37.7 0 18.8 0L0 0Z" fill="#0D0E26" stroke-linecap="round" stroke-linejoin="miter"></path></svg>