<svg id="visual" viewBox="0 0 900 600" width="900" height="600" xmlns="http://www.w3.org/2000/svg" xmlns:xlink="http://www.w3.org/1999/xlink" version="1.1"><rect x="0" y="0" width="900" height="600" fill="#F2F2F2"></rect><path d="M0 449L18.8 438.3C37.7 427.7 75.3 406.3 112.8 407.2C150.3 408 187.7 431 225.2 422.7C262.7 414.3 300.3 374.7 337.8 352.2C375.3 329.7 412.7 324.3 450.2 342.8C487.7 361.3 525.3 403.7 562.8 417C600.3 430.3 637.7 414.7 675.2 379.2C712.7 343.7 750.3 288.3 787.8 274.7C825.3 261 862.7 289 881.3 303L900 317L900 0L881.3 0C862.7 0 825.3 0 787.8 0C750.3 0 712.7 0 675.2 0C637.7 0 600.3 0 562.8 0C525.3 0 487.7 0 450.2 0C412.7 0 375.3 0 337.8 0C300.3 0 262.7 0 225.2 0C187.7 0 150.3 0 112.8 0C75.3 0 37.7 0 18.8 0L0 0Z" fill="#656B8C" stroke-linecap="round" stroke-linejoin="miter"></path></svg>