<svg id="visual" viewBox="0 0 900 600" width="900" height="600" xmlns="http://www.w3.org/2000/svg" xmlns:xlink="http://www.w3.org/1999/xlink" version="1.1"><path d="M0 422L18.8 411.5C37.7 401 75.3 380 112.8 366.7C150.3 353.3 187.7 347.7 225.2 324C262.7 300.3 300.3 258.7 337.8 261.2C375.3 263.7 412.7 310.3 450.2 311.7C487.7 313 525.3 269 562.8 278.2C600.3 287.3 637.7 349.7 675.2 362.3C712.7 375 750.3 338 787.8 335C825.3 332 862.7 363 881.3 378.5L900 394L900 0L881.3 0C862.7 0 825.3 0 787.8 0C750.3 0 712.7 0 675.2 0C637.7 0 600.3 0 562.8 0C525.3 0 487.7 0 450.2 0C412.7 0 375.3 0 337.8 0C300.3 0 262.7 0 225.2 0C187.7 0 150.3 0 112.8 0C75.3 0 37.7 0 18.8 0L0 0Z" fill="#56588C" stroke-linecap="round" stroke-linejoin="miter"></path></svg>