<svg id="visual" viewBox="0 0 1800 1800" width="1800" height="1800" xmlns="http://www.w3.org/2000/svg"
  xmlns:xlink="http://www.w3.org/1999/xlink" version="1.1">
  <rect x="0" y="0" width="1800" height="1800" fill="rgba(242,242,242,0.603)"></rect>
  <path
    d="M0 283L50 321.2C100 359.3 200 435.7 300 560.2C400 684.7 500 857.3 600 844C700 830.7 800 631.3 900 669.8C1000 708.3 1100 984.7 1200 1036.3C1300 1088 1400 915 1500 886.2C1600 857.3 1700 972.7 1750 1030.3L1800 1088L1800 1801L1750 1801C1700 1801 1600 1801 1500 1801C1400 1801 1300 1801 1200 1801C1100 1801 1000 1801 900 1801C800 1801 700 1801 600 1801C500 1801 400 1801 300 1801C200 1801 100 1801 50 1801L0 1801Z"
    fill="#656B8C" stroke-linecap="round" stroke-linejoin="miter"></path>
</svg>