<svg id="visual" viewBox="0 0 1800 1800" width="1800" height="1800" xmlns="http://www.w3.org/2000/svg" xmlns:xlink="http://www.w3.org/1999/xlink" version="1.1"><path d="M0 1298L50 1243.8C100 1189.7 200 1081.3 300 947.3C400 813.3 500 653.7 600 689.2C700 724.7 800 955.3 900 996.5C1000 1037.7 1100 889.3 1200 911.2C1300 933 1400 1125 1500 1100.7C1600 1076.3 1700 835.7 1750 715.3L1800 595L1800 1801L1750 1801C1700 1801 1600 1801 1500 1801C1400 1801 1300 1801 1200 1801C1100 1801 1000 1801 900 1801C800 1801 700 1801 600 1801C500 1801 400 1801 300 1801C200 1801 100 1801 50 1801L0 1801Z" fill="#56588C" stroke-linecap="round" stroke-linejoin="miter"></path></svg>