<svg id="visual" viewBox="0 0 1800 1800" width="1800" height="1800" xmlns="http://www.w3.org/2000/svg" xmlns:xlink="http://www.w3.org/1999/xlink" version="1.1"><path d="M0 1384L50 1332.3C100 1280.7 200 1177.3 300 1164C400 1150.7 500 1227.3 600 1295.5C700 1363.7 800 1423.3 900 1338.7C1000 1254 1100 1025 1200 924.5C1300 824 1400 852 1500 929.2C1600 1006.3 1700 1132.7 1750 1195.8L1800 1259L1800 1801L1750 1801C1700 1801 1600 1801 1500 1801C1400 1801 1300 1801 1200 1801C1100 1801 1000 1801 900 1801C800 1801 700 1801 600 1801C500 1801 400 1801 300 1801C200 1801 100 1801 50 1801L0 1801Z" fill="#0D0E26" stroke-linecap="round" stroke-linejoin="miter"></path></svg>