<svg id="visual" viewBox="0 0 1800 1800" width="1800" height="1800" xmlns="http://www.w3.org/2000/svg"
  xmlns:xlink="http://www.w3.org/1999/xlink" version="1.1">
  <path
    d="M0 854L50 955.2C100 1056.3 200 1258.7 300 1257.8C400 1257 500 1053 600 981.8C700 910.7 800 972.3 900 1036.5C1000 1100.7 1100 1167.3 1200 1212C1300 1256.7 1400 1279.3 1500 1282C1600 1284.7 1700 1267.3 1750 1258.7L1800 1250L1800 1801L1750 1801C1700 1801 1600 1801 1500 1801C1400 1801 1300 1801 1200 1801C1100 1801 1000 1801 900 1801C800 1801 700 1801 600 1801C500 1801 400 1801 300 1801C200 1801 100 1801 50 1801L0 1801Z"
    fill="#8c0f84" stroke-linecap="round" stroke-linejoin="miter"></path>
</svg>